ffmpeg version 3.4.8-0ubuntu0.2 Copyright (c) 2000-2020 the FFmpeg developers
  built with gcc 7 (Ubuntu 7.5.0-3ubuntu1~18.04)
  configuration: --prefix=/usr --extra-version=0ubuntu0.2 --toolchain=hardened --libdir=/usr/lib/x86_64-linux-gnu --incdir=/usr/include/x86_64-linux-gnu --enable-gpl --disable-stripping --enable-avresample --enable-avisynth --enable-gnutls --enable-ladspa --enable-libass --enable-libbluray --enable-libbs2b --enable-libcaca --enable-libcdio --enable-libflite --enable-libfontconfig --enable-libfreetype --enable-libfribidi --enable-libgme --enable-libgsm --enable-libmp3lame --enable-libmysofa --enable-libopenjpeg --enable-libopenmpt --enable-libopus --enable-libpulse --enable-librubberband --enable-librsvg --enable-libshine --enable-libsnappy --enable-libsoxr --enable-libspeex --enable-libssh --enable-libtheora --enable-libtwolame --enable-libvorbis --enable-libvpx --enable-libwavpack --enable-libwebp --enable-libx265 --enable-libxml2 --enable-libxvid --enable-libzmq --enable-libzvbi --enable-omx --enable-openal --enable-opengl --enable-sdl2 --enable-libdc1394 --enable-libdrm --enable-libiec61883 --enable-chromaprint --enable-frei0r --enable-libopencv --enable-libx264 --enable-shared
  libavutil      55. 78.100 / 55. 78.100
  libavcodec     57.107.100 / 57.107.100
  libavformat    57. 83.100 / 57. 83.100
  libavdevice    57. 10.100 / 57. 10.100
  libavfilter     6.107.100 /  6.107.100
  libavresample   3.  7.  0 /  3.  7.  0
  libswscale      4.  8.100 /  4.  8.100
  libswresample   2.  9.100 /  2.  9.100
  libpostproc    54.  7.100 / 54.  7.100
[rawvideo @ 0x5585900a6a20] Estimating duration from bitrate, this may be inaccurate
Input #0, rawvideo, from '../../SVC-Encoder-20220109T061506Z-001/SVC-Encoder/Dataset/RollerCoaster/ERP_8x8/tile_yuv/Tile_54_480x240.yuv':
  Duration: 00:00:10.00, start: 0.000000, bitrate: 41472 kb/s
    Stream #0:0: Video: rawvideo (I420 / 0x30323449), yuv420p, 480x240, 41472 kb/s, 30 tbr, 30 tbn, 30 tbc
Stream mapping:
  Stream #0:0 -> #0:0 (rawvideo (native) -> h264 (libx264))
Press [q] to stop, [?] for help
[libx264 @ 0x5585900b3c60] using cpu capabilities: MMX2 SSE2Fast LZCNT SSSE3 SSE4.2 AVX
[libx264 @ 0x5585900b3c60] profile High, level 2.1
Output #0, rawvideo, to 'RollerCoaster_Tile_54_480x240_x264_QP_20.h264':
  Metadata:
    encoder         : Lavf57.83.100
    Stream #0:0: Video: h264 (libx264), yuv420p, 480x240, q=-1--1, 30 fps, 30 tbn, 30 tbc
    Metadata:
      encoder         : Lavc57.107.100 libx264
    Side data:
      cpb: bitrate max/min/avg: 0/0/0 buffer size: 0 vbv_delay: -1
frame=  175 fps=0.0 q=26.0 PSNR=Y:nan U:nan V:nan *:nan size=      79kB time=00:00:04.40 bitrate= 147.6kbits/s speed=8.72x    frame=  300 fps=0.0 q=26.0 LPSNR=Y:inf U:inf V:inf *:inf size=     162kB time=00:00:09.93 bitrate= 133.2kbits/s speed=  11x    
video:162kB audio:0kB subtitle:0kB other streams:0kB global headers:0kB muxing overhead: 0.000000%
[libx264 @ 0x5585900b3c60] frame I:2     Avg QP:17.60  size: 13029  PSNR Mean Y:50.93 U:52.59 V:52.14 Avg:51.35 Global:51.32
[libx264 @ 0x5585900b3c60] frame P:76    Avg QP:19.29  size:  1334  PSNR Mean Y:48.46 U:51.37 V:50.92 Avg:49.18 Global:49.15
[libx264 @ 0x5585900b3c60] frame B:222   Avg QP:25.44  size:   171  PSNR Mean Y:48.20 U:51.13 V:50.67 Avg:48.92 Global:48.89
[libx264 @ 0x5585900b3c60] consecutive B-frames:  1.0%  0.7%  1.0% 97.3%
[libx264 @ 0x5585900b3c60] mb I  I16..4: 32.2% 50.3% 17.4%
[libx264 @ 0x5585900b3c60] mb P  I16..4:  3.6%  1.0%  0.0%  P16..4: 37.6% 12.8%  7.9%  0.0%  0.0%    skip:37.1%
[libx264 @ 0x5585900b3c60] mb B  I16..4:  0.0%  0.0%  0.0%  B16..8: 29.1%  0.9%  0.0%  direct: 0.0%  skip:69.9%  L0:42.0% L1:57.1% BI: 1.0%
[libx264 @ 0x5585900b3c60] 8x8 transform intra:32.1% inter:71.2%
[libx264 @ 0x5585900b3c60] coded y,uvDC,uvAC intra: 23.8% 57.4% 18.4% inter: 5.3% 8.4% 0.1%
[libx264 @ 0x5585900b3c60] i16 v,h,dc,p: 37% 40% 18%  5%
[libx264 @ 0x5585900b3c60] i8 v,h,dc,ddl,ddr,vr,hd,vl,hu:  6% 24% 40%  3%  4%  2%  6%  2% 13%
[libx264 @ 0x5585900b3c60] i4 v,h,dc,ddl,ddr,vr,hd,vl,hu:  9% 30%  9%  6%  9%  4% 11%  4% 18%
[libx264 @ 0x5585900b3c60] i8c dc,h,v,p: 52% 33% 10%  5%
[libx264 @ 0x5585900b3c60] Weighted P-Frames: Y:1.3% UV:0.0%
[libx264 @ 0x5585900b3c60] ref P L0: 60.3% 12.4% 21.1%  6.1%  0.0%
[libx264 @ 0x5585900b3c60] ref B L0: 78.7% 17.9%  3.4%
[libx264 @ 0x5585900b3c60] ref B L1: 88.1% 11.9%
[libx264 @ 0x5585900b3c60] PSNR Mean Y:48.283 U:51.199 V:50.744 Avg:49.004 Global:48.970 kb/s:132.35
